# xmcd CD database file
#
# Track frame offsets:
#	150
#	23827
#	48558
#
# Disc length: 1032 seconds
#
# Revision: 0
# Processed by: cddbd v1.5.2PL0 Copyright (c) Steve Scherf et al.
# Submitted via: CDex 1.70beta2
#
DISCID=1e040603
DTITLE=Courtney Fadlin - We Fall Down
DYEAR=2005
DGENRE=Jazz
TTITLE0=We Fall Down
TTITLE1=Jesus Makes Me Happy
TTITLE2=We Fall Down - Remix
EXTD=YEAR: 2005
EXTT0=
EXTT1=
EXTT2=
PLAYORDER=
